<svg width="100%" height="100%" viewBox="0 0 138 138" fill="none" xmlns="http://www.w3.org/2000/svg">
<path d="M69 0C30.9551 0 0 30.9551 0 69C0 107.045 30.9551 138 69 138C107.045 138 138 107.045 138 69C138 30.9551 107.045 0 69 0ZM69 120.75C40.4599 120.75 17.25 97.5401 17.25 69C17.25 40.4599 40.4599 17.25 69 17.25C97.5401 17.25 120.75 40.4599 120.75 69C120.75 97.5401 97.5401 120.75 69 120.75Z" fill="white"/>
<path d="M77.625 34.5H60.375V60.375H34.5V77.625H60.375V103.5H77.625V77.625H103.5V60.375H77.625V34.5Z" fill="white"/>
</svg>
