<svg width="100%" height="100%" viewBox="0 0 130 130" fill="none" xmlns="http://www.w3.org/2000/svg">
<path d="M10.2399 1.68764C4.90487 1.68764 0.578247 6.01397 0.578247 11.349C0.578247 16.684 4.90487 21.0106 10.2399 21.0106C15.5749 21.0106 19.9015 16.6837 19.9015 11.349C19.9015 6.01397 15.5749 1.68764 10.2399 1.68764Z" fill="white"/>
<path d="M41.8608 22.6985H118.072C124.34 22.6985 129.421 17.6174 129.421 11.3493C129.421 5.08106 124.34 0 118.072 0H41.8608C35.5927 0 30.5116 5.08106 30.5116 11.3493C30.5116 17.6174 35.5927 22.6985 41.8608 22.6985Z" fill="white"/>
<path d="M10.2399 37.4548C4.90487 37.4548 0.578247 41.7811 0.578247 47.1161C0.578247 52.4511 4.90487 56.7778 10.2399 56.7778C15.5749 56.7778 19.9015 52.4511 19.9015 47.1161C19.9015 41.7811 15.5749 37.4548 10.2399 37.4548Z" fill="white"/>
<path d="M118.072 35.7672H41.8608C35.5927 35.7672 30.5116 40.8482 30.5116 47.1164C30.5116 53.3846 35.5927 58.4657 41.8608 58.4657H118.072C124.34 58.4657 129.421 53.3846 129.421 47.1164C129.421 40.8482 124.34 35.7672 118.072 35.7672Z" fill="white"/>
<path d="M10.2399 73.222C4.90487 73.222 0.578247 77.5483 0.578247 82.8833C0.578247 88.2183 4.90487 92.5449 10.2399 92.5449C15.5749 92.5449 19.9015 88.2183 19.9015 82.8833C19.9015 77.5483 15.5749 73.222 10.2399 73.222Z" fill="white"/>
<path d="M118.072 71.534H41.8608C35.5927 71.534 30.5116 76.6151 30.5116 82.8833C30.5116 89.1515 35.5927 94.2325 41.8608 94.2325H118.072C124.34 94.2325 129.421 89.1515 129.421 82.8833C129.421 76.6151 124.34 71.534 118.072 71.534Z" fill="white"/>
<path d="M10.2399 108.989C4.90487 108.989 0.578247 113.315 0.578247 118.65C0.578247 123.985 4.90487 128.312 10.2399 128.312C15.5749 128.312 19.9015 123.985 19.9015 118.65C19.9015 113.315 15.5749 108.989 10.2399 108.989Z" fill="white"/>
<path d="M118.072 107.301H41.8608C35.5927 107.301 30.5116 112.383 30.5116 118.651C30.5116 124.919 35.5927 130 41.8608 130H118.072C124.34 130 129.421 124.919 129.421 118.651C129.421 112.383 124.34 107.301 118.072 107.301Z" fill="white"/>
</svg>
