<svg width="191" height="138" viewBox="0 0 191 138" fill="none" xmlns="http://www.w3.org/2000/svg">
<g clip-path="url(#clip0_2:17)">
<path d="M150.116 12.4171C149.634 8.87925 149.029 5.08083 146.533 2.52692C145.741 1.71656 144.793 1.07494 143.746 0.640726C142.7 0.206512 141.576 -0.011299 140.443 0.000426571C139.309 0.0121522 138.19 0.253174 137.153 0.708954C136.115 1.16473 135.181 1.82584 134.406 2.65241C132.589 4.59014 131.787 7.31102 131.713 9.96596C131.64 12.6209 132.231 15.2464 132.887 17.8201C136.36 17.8894 139.806 17.2112 142.993 15.8315C143.774 15.4503 144.584 15.1323 145.416 14.8805C146.258 14.6662 146.858 15.2053 147.641 15.5813L148.071 14.7583C148.423 15.4131 149.513 15.219 149.908 14.5894C150.303 13.9599 150.217 13.1536 150.116 12.4171Z" fill="#2F2E41"/>
<path d="M135.614 27.355L136.619 22.2206L129.081 18.9579L115.604 12.5031C115.51 11.9042 115.237 11.3479 114.82 10.9078C114.403 10.4677 113.862 10.1645 113.269 10.0384C112.675 9.9123 112.058 9.96919 111.498 10.2016C110.938 10.4339 110.461 10.8308 110.132 11.3397C109.802 11.8487 109.635 12.4456 109.652 13.0516C109.669 13.6577 109.87 14.2442 110.228 14.7336C110.586 15.2231 111.084 15.5924 111.656 15.7927C112.228 15.993 112.848 16.0149 113.433 15.8555L126.265 23.7723L135.614 27.355Z" fill="#FFB8B8"/>
<path d="M130.553 26.4863L136.013 20.9064L136.121 20.9392C136.189 20.9598 142.973 23.0273 147.297 25.1283C147.786 25.3476 148.221 25.6709 148.572 26.0756C148.923 26.4804 149.182 26.9567 149.33 27.4716C149.545 28.1924 149.545 28.9604 149.329 29.6813C149.114 30.4021 148.693 31.0444 148.118 31.5294C147.526 32.0586 146.795 32.4064 146.011 32.5311C145.228 32.6559 144.424 32.5523 143.698 32.2329L130.553 26.4863Z" fill="#B266FF"/>
<path d="M130.537 51.0183L145.89 55.1198L148.99 40.62L134.898 36.2594L130.537 51.0183Z" fill="#FFB8B8"/>
<path d="M147.608 47.0827L132.61 43.6346L129.738 36.6756C129.504 35.6823 129.561 34.6427 129.902 33.6807C130.242 32.7187 130.852 31.8748 131.659 31.2495L137.138 26.6245L140.076 22.8729L139.756 20.8848C139.699 20.4875 139.782 20.0826 139.992 19.7403C140.202 19.3979 140.524 19.1395 140.904 19.0097L144.819 17.6061C145.252 17.4443 145.73 17.453 146.157 17.6304C146.583 17.8078 146.927 18.1406 147.117 18.5615L147.532 19.5214C147.532 19.5214 149.302 20.3542 150.301 20.8227C150.814 21.0562 151.273 21.3955 151.646 21.8184C152.019 22.2412 152.299 22.7382 152.467 23.2767C153.995 28.2125 153.583 33.5448 151.316 38.1877L147.608 47.0827Z" fill="#B266FF"/>
<path d="M14.2266 120.954L6.97495 119.014C5.90871 115.22 5.78509 111.222 6.61483 107.369C9.77849 113.621 18.2751 114.8 23.3086 119.676C24.8668 121.208 26.0601 123.072 26.7999 125.128C27.5398 127.185 27.8073 129.381 27.5827 131.555L29.3198 136.586C25.7938 136.447 22.3399 135.545 19.1961 133.942C16.0523 132.34 13.2934 130.075 11.1094 127.304C9.89958 125.738 8.89192 124.025 8.11021 122.206C11.1446 121.762 14.2266 120.954 14.2266 120.954Z" fill="#F2F2F2"/>
<path d="M104.319 138H33.2441C31.3393 137.998 29.5131 137.24 28.1662 135.894C26.8193 134.547 26.0617 132.722 26.0595 130.817V36.7305C26.0617 34.8262 26.8193 33.0005 28.1662 31.6539C29.5131 30.3074 31.3393 29.55 33.2441 29.5478H104.319C106.224 29.5499 108.05 30.3074 109.397 31.6539C110.744 33.0005 111.502 34.8262 111.504 36.7305V130.817C111.502 132.722 110.744 134.547 109.397 135.894C108.05 137.24 106.224 137.998 104.319 138Z" fill="#E6E6E6"/>
<path d="M77.192 132.176H38.2402C36.5058 132.174 34.843 131.485 33.6166 130.258C32.3902 129.032 31.7003 127.37 31.6984 125.636V41.9117C31.7004 40.1777 32.3902 38.5154 33.6166 37.2893C34.843 36.0632 36.5058 35.3736 38.2402 35.3716H99.3233C101.058 35.3736 102.72 36.0632 103.947 37.2893C105.173 38.5154 105.863 40.1777 105.865 41.9117V103.511C105.856 111.111 102.833 118.397 97.4574 123.771C92.082 129.145 84.7939 132.168 77.192 132.176Z" fill="white"/>
<path d="M93.2298 51.4452H44.3336C44.1242 51.4455 43.9168 51.4045 43.7232 51.3246C43.5296 51.2447 43.3537 51.1275 43.2054 50.9797C43.0571 50.8318 42.9395 50.6562 42.8591 50.4629C42.7787 50.2696 42.7372 50.0623 42.7369 49.8529C42.7367 49.6436 42.7777 49.4362 42.8576 49.2427C42.9375 49.0492 43.0547 48.8733 43.2026 48.7251C43.3505 48.5768 43.5261 48.4592 43.7195 48.3788C43.9129 48.2985 44.1202 48.257 44.3296 48.2567H93.2298C93.6528 48.2562 94.0586 48.4236 94.358 48.7222C94.6574 49.0208 94.8259 49.4261 94.8265 49.849C94.827 50.2718 94.6595 50.6775 94.3608 50.9768C94.0621 51.2762 93.6567 51.4447 93.2338 51.4452H93.2298Z" fill="#B266FF"/>
<path d="M93.2299 57.7448H44.3336C43.9107 57.7448 43.505 57.5769 43.206 57.2779C42.9069 56.9789 42.7389 56.5734 42.7389 56.1505C42.7389 55.7277 42.9069 55.3222 43.206 55.0232C43.505 54.7242 43.9107 54.5562 44.3336 54.5562H93.2299C93.6528 54.5562 94.0584 54.7242 94.3575 55.0232C94.6566 55.3222 94.8246 55.7277 94.8246 56.1505C94.8246 56.5734 94.6566 56.9789 94.3575 57.2779C94.0584 57.5769 93.6528 57.7448 93.2299 57.7448Z" fill="#B266FF"/>
<path d="M65.529 64.0445H44.3336C43.9107 64.0445 43.505 63.8765 43.206 63.5775C42.9069 63.2785 42.7389 62.873 42.7389 62.4502C42.7389 62.0273 42.9069 61.6218 43.206 61.3228C43.505 61.0238 43.9107 60.8559 44.3336 60.8559H65.529C65.9519 60.8559 66.3575 61.0238 66.6566 61.3228C66.9557 61.6218 67.1237 62.0273 67.1237 62.4502C67.1237 62.873 66.9557 63.2785 66.6566 63.5775C66.3575 63.8765 65.9519 64.0445 65.529 64.0445Z" fill="#B266FF"/>
<path d="M93.2298 77.2383H44.3336C43.9107 77.2389 43.5048 77.0714 43.2054 76.7728C42.906 76.4742 42.7375 76.0689 42.7369 75.6461C42.7364 75.2233 42.9039 74.8176 43.2026 74.5182C43.5013 74.2189 43.9067 74.0504 44.3296 74.0499H93.2298C93.6528 74.0493 94.0586 74.2168 94.358 74.5154C94.6574 74.814 94.8259 75.2193 94.8265 75.6421C94.827 76.0649 94.6595 76.4706 94.3608 76.77C94.0621 77.0694 93.6567 77.2378 93.2338 77.2383H93.2298Z" fill="#E4E4E4"/>
<path d="M93.2299 83.538H44.3336C43.9107 83.538 43.505 83.37 43.206 83.071C42.9069 82.772 42.7389 82.3665 42.7389 81.9437C42.7389 81.5208 42.9069 81.1153 43.206 80.8163C43.505 80.5173 43.9107 80.3493 44.3336 80.3493H93.2299C93.6528 80.3493 94.0584 80.5173 94.3575 80.8163C94.6566 81.1153 94.8246 81.5208 94.8246 81.9437C94.8246 82.3665 94.6566 82.772 94.3575 83.071C94.0584 83.37 93.6528 83.538 93.2299 83.538Z" fill="#E4E4E4"/>
<path d="M65.529 89.8376H44.3336C43.9107 89.8376 43.505 89.6697 43.206 89.3707C42.9069 89.0717 42.7389 88.6662 42.7389 88.2433C42.7389 87.8205 42.9069 87.415 43.206 87.116C43.505 86.817 43.9107 86.649 44.3336 86.649H65.529C65.9519 86.649 66.3575 86.817 66.6566 87.116C66.9557 87.415 67.1237 87.8205 67.1237 88.2433C67.1237 88.6662 66.9557 89.0717 66.6566 89.3707C66.3575 89.6697 65.9519 89.8376 65.529 89.8376Z" fill="#E4E4E4"/>
<path d="M93.2298 103.031H44.3336C43.9107 103.032 43.5048 102.865 43.2054 102.566C42.906 102.267 42.7375 101.862 42.7369 101.439C42.7364 101.016 42.9039 100.611 43.2026 100.311C43.5013 100.012 43.9067 99.8435 44.3296 99.843H93.2298C93.6528 99.8425 94.0586 100.01 94.358 100.309C94.6574 100.607 94.8259 101.012 94.8265 101.435C94.827 101.858 94.6595 102.264 94.3608 102.563C94.0621 102.862 93.6567 103.031 93.2338 103.031H93.2298Z" fill="#E4E4E4"/>
<path d="M93.2299 109.331H44.3336C43.9107 109.331 43.505 109.163 43.206 108.864C42.9069 108.565 42.7389 108.16 42.7389 107.737C42.7389 107.314 42.9069 106.908 43.206 106.609C43.505 106.31 43.9107 106.142 44.3336 106.142H93.2299C93.6528 106.142 94.0584 106.31 94.3575 106.609C94.6566 106.908 94.8246 107.314 94.8246 107.737C94.8246 108.16 94.6566 108.565 94.3575 108.864C94.0584 109.163 93.6528 109.331 93.2299 109.331Z" fill="#E4E4E4"/>
<path d="M65.529 115.631H44.3336C43.9112 115.63 43.5063 115.462 43.2079 115.163C42.9095 114.864 42.7419 114.459 42.7419 114.036C42.7419 113.614 42.9095 113.209 43.2079 112.91C43.5063 112.611 43.9112 112.443 44.3336 112.442H65.529C65.9514 112.443 66.3562 112.611 66.6546 112.91C66.953 113.209 67.1207 113.614 67.1207 114.036C67.1207 114.459 66.953 114.864 66.6546 115.163C66.3562 115.462 65.9514 115.63 65.529 115.631Z" fill="#E4E4E4"/>
<path d="M107.994 52.1035C119.444 52.1035 128.726 42.8242 128.726 31.3776C128.726 19.931 119.444 10.6517 107.994 10.6517C96.5446 10.6517 87.2628 19.931 87.2628 31.3776C87.2628 42.8242 96.5446 52.1035 107.994 52.1035Z" fill="#B266FF"/>
<path opacity="0.16" d="M107.994 49.2324C102.749 49.2317 97.6996 47.2432 93.863 43.6679C90.0264 40.0925 87.6882 35.196 87.3197 29.9654C87.2861 30.4479 87.2628 30.9333 87.2628 31.4243C87.2649 36.9198 89.45 42.1896 93.3377 46.0747C97.2253 49.9599 102.497 52.1425 107.994 52.1425C113.491 52.1425 118.763 49.9599 122.651 46.0747C126.538 42.1896 128.724 36.9198 128.726 31.4243C128.726 30.9333 128.702 30.4479 128.669 29.9654C128.3 35.196 125.962 40.0925 122.125 43.6679C118.289 47.2432 113.239 49.2317 107.994 49.2324Z" fill="#231F20"/>
<path d="M107.994 41.506C107.306 41.5052 106.646 41.2314 106.159 40.7448C105.673 40.2582 105.399 39.5985 105.398 38.9103V23.8917C105.398 23.5506 105.464 23.2128 105.595 22.8976C105.725 22.5823 105.916 22.2959 106.157 22.0546C106.399 21.8132 106.685 21.6218 107 21.4912C107.315 21.3606 107.653 21.2934 107.994 21.2934C108.335 21.2934 108.673 21.3606 108.988 21.4912C109.304 21.6218 109.59 21.8132 109.831 22.0546C110.072 22.2959 110.263 22.5823 110.394 22.8976C110.524 23.2128 110.591 23.5506 110.59 23.8917V38.9103C110.59 39.5985 110.316 40.2582 109.829 40.7448C109.343 41.2314 108.683 41.5051 107.994 41.506Z" fill="white"/>
<path d="M97.8866 31.4011C97.8874 30.7129 98.1612 30.0532 98.6479 29.5665C99.1347 29.0799 99.7946 28.8062 100.483 28.8054H115.506C115.847 28.8051 116.185 28.8719 116.5 29.0022C116.815 29.1325 117.102 29.3236 117.343 29.5647C117.585 29.8057 117.776 30.092 117.907 30.4071C118.037 30.7222 118.105 31.0599 118.105 31.401C118.105 31.7421 118.037 32.0798 117.907 32.3949C117.776 32.71 117.585 32.9963 117.343 33.2373C117.102 33.4784 116.815 33.6695 116.5 33.7998C116.185 33.9301 115.847 33.9969 115.506 33.9966H100.483C99.7946 33.9958 99.1347 33.7221 98.6479 33.2355C98.1612 32.7489 97.8874 32.0892 97.8866 31.4011Z" fill="white"/>
<path d="M139.159 35.805L134.747 32.9904L128.951 38.8099L118.01 48.9859C117.418 48.8541 116.8 48.905 116.238 49.132C115.676 49.3589 115.196 49.7512 114.861 50.2569C114.527 50.7626 114.354 51.358 114.365 51.9641C114.376 52.5703 114.571 53.1587 114.924 53.6516C115.278 54.1445 115.772 54.5186 116.342 54.7244C116.913 54.9302 117.532 54.9581 118.119 54.8043C118.705 54.6505 119.232 54.3223 119.627 53.8631C120.023 53.4039 120.271 52.8353 120.336 52.2326L132.402 43.1916L139.159 35.805Z" fill="#FFB8B8"/>
<path d="M136.498 40.1951L133.302 33.0733L133.372 32.9848C133.416 32.9293 137.823 27.3744 141.362 24.12C141.745 23.7455 142.205 23.4591 142.71 23.2807C143.215 23.1023 143.753 23.0362 144.287 23.087C145.037 23.1508 145.751 23.432 146.343 23.896C146.936 24.3601 147.38 24.9868 147.621 25.6994C147.897 26.4432 147.953 27.2508 147.782 28.0257C147.611 28.8005 147.221 29.5098 146.658 30.0688L136.498 40.1951Z" fill="#B266FF"/>
<path d="M139.385 16.7866C143.216 16.7866 146.321 13.6823 146.321 9.85293C146.321 6.02359 143.216 2.9193 139.385 2.9193C135.555 2.9193 132.45 6.02359 132.45 9.85293C132.45 13.6823 135.555 16.7866 139.385 16.7866Z" fill="#FFB8B8"/>
<path d="M128.61 133.034H125.743L124.378 121.978H128.61V133.034Z" fill="#FFB8B8"/>
<path d="M130.123 138H128.067L127.7 136.059L126.76 138H121.307C121.046 138 120.791 137.916 120.58 137.762C120.37 137.607 120.214 137.389 120.137 137.139C120.059 136.89 120.063 136.622 120.148 136.375C120.233 136.128 120.395 135.914 120.61 135.766L124.965 132.759V130.797L129.546 131.07L130.123 138Z" fill="#2F2E41"/>
<path d="M164.545 130.598L161.881 131.659L156.523 121.891L160.455 120.326L164.545 130.598Z" fill="#FFB8B8"/>
<path d="M167.788 134.653L165.878 135.413L164.819 133.746L164.663 135.897L159.597 137.913C159.354 138.01 159.086 138.026 158.833 137.96C158.581 137.894 158.355 137.749 158.191 137.546C158.026 137.343 157.931 137.093 157.919 136.832C157.906 136.571 157.978 136.312 158.123 136.095L161.057 131.691L160.331 129.868L164.688 128.429L167.788 134.653Z" fill="#2F2E41"/>
<path d="M129.716 127.955H123.785L125.424 100.099L124.226 81.2176L124.229 81.2025L128.698 54.1371C129.049 52.0028 129.999 50.012 131.437 48.3961L131.492 48.3348L146.447 52.0275L147.951 55.4553C153.086 58.5083 154.707 75.7244 154.774 76.4578L156.948 97.9195L162.265 124.223L158.52 126.239L158.458 126.114L146.636 102.613L139.17 77.8297L134.389 100.135L129.716 127.955Z" fill="#2F2E41"/>
<path d="M147.975 10.1792C147.729 8.56757 147.473 6.9424 146.896 5.42486C146.32 3.90732 145.39 2.48591 144.057 1.62624C141.946 0.265172 139.214 0.527675 136.847 1.3106C135.017 1.91608 133.23 2.83636 131.94 4.31586C130.649 5.79537 129.924 7.90646 130.404 9.84097C132.929 9.24471 135.453 8.64844 137.977 8.05217L137.701 8.24739C138.53 8.66058 139.254 9.25713 139.818 9.99176C140.381 10.7264 140.77 11.5798 140.955 12.4871C141.136 13.4055 141.11 14.3526 140.879 15.2597C140.649 16.1669 140.219 17.0115 139.622 17.7324C141.344 17.1219 143.066 16.5113 144.787 15.9007C145.85 15.5239 146.987 15.0896 147.617 14.123C148.348 13.0022 148.178 11.5167 147.975 10.1792Z" fill="#2F2E41"/>
<path d="M0.363597 137.933H190.636C190.733 137.933 190.825 137.895 190.894 137.827C190.962 137.759 191 137.666 191 137.57C191 137.473 190.962 137.381 190.894 137.313C190.825 137.244 190.733 137.206 190.636 137.206H0.363597C0.267163 137.206 0.174685 137.244 0.106496 137.313C0.038307 137.381 0 137.473 0 137.57C0 137.666 0.038307 137.759 0.106496 137.827C0.174685 137.895 0.267163 137.933 0.363597 137.933Z" fill="#CCCCCC"/>
</g>
<defs>
<clipPath id="clip0_2:17">
<rect width="191" height="138" fill="white"/>
</clipPath>
</defs>
</svg>
