<svg width="100%" height="100%" viewBox="0 0 133 133" fill="none" xmlns="http://www.w3.org/2000/svg">
<path d="M117.098 29.9913L88.4033 1.29641C87.5731 0.466172 86.4473 0 85.2736 0H19.0315C16.5874 0 14.6053 1.98201 14.6053 4.42572V128.574C14.6053 131.018 16.5874 133 19.0315 133H113.968C116.413 133 118.395 131.018 118.395 128.574V33.1206C118.395 31.9469 117.928 30.8211 117.098 29.9913ZM89.6997 15.1114L103.283 28.6949H89.6997V15.1114ZM23.4577 124.148V8.85189H80.8474V33.1206C80.8474 35.5652 82.8294 37.5468 85.2736 37.5468H109.542V124.148H23.4577V124.148Z" fill="white"/>
<path d="M66.9581 61.205C66.2859 59.5244 64.6581 58.4228 62.848 58.4228C61.0384 58.4228 59.4106 59.5244 58.7385 61.205L44.1331 97.7191C43.2254 99.9887 44.3293 102.564 46.5988 103.473C48.8674 104.379 51.4436 103.276 52.3522 101.007L54.1601 96.4859H71.5365L73.3443 101.007C74.0371 102.737 75.6989 103.79 77.4557 103.79C78.0029 103.79 78.5591 103.688 79.0978 103.473C81.3673 102.564 82.4716 99.9891 81.5639 97.7191L66.9581 61.205ZM57.7014 87.6335L62.8485 74.7657L67.9961 87.6335H57.7014Z" fill="white"/>
<path d="M94.7357 59.7506H91.1747V56.1672C91.1747 53.7231 89.1927 51.7415 86.7486 51.7415C84.3044 51.7415 82.3229 53.7231 82.3229 56.1672V59.7506H78.7619C76.3173 59.7506 74.3357 61.7322 74.3357 64.1763C74.3357 66.6209 76.3173 68.6025 78.7619 68.6025H82.3229V72.1859C82.3229 74.6301 84.3044 76.6121 86.7486 76.6121C89.1927 76.6121 91.1747 74.6301 91.1747 72.1859V68.6025H94.7357C97.1799 68.6025 99.1619 66.6209 99.1619 64.1763C99.1614 61.7317 97.1799 59.7506 94.7357 59.7506Z" fill="white"/>
</svg>
